#!OML:ASF H:\Martial Arts Walks\Project 1\Capture day 1\Session 1\male.ASF
:FULLY-SPECIFIED
:DEGREES
2234
root -3.09305 14.5616 -27.8093 4.35821 16.1029 8.18892
lowerback 14.5084 0.85703 -13.5735
upperback -1.04731 -1.19918 0.473701
thorax -9.10369 0.110538 8.49783
lowerneck -0.6725 -7.11357 -8.26898
upperneck 6.56227 -9.64062 5.78191
head 3.03155 -4.85331 3.05004
rclavicle -3.5334e-014 -2.38542e-014
rhumerus -34.9608 8.62198 -72.3154
rradius 39.393
rwrist 14.7386
rhand 0.62492 -44.8305
rfingers 7.12502
rthumb 26.1888 -73.0438
lclavicle -3.5334e-014 -2.38542e-014
lhumerus -29.88 -15.2869 87.8747
lradius 35.9332
lwrist -9.34983
lhand -17.1892 23.4359
lfingers 7.12502
lthumb 9.05278 53.2216
rfemur -59.335 -15.1868 5.69031
rtibia 67.9932
rfoot -7.6745 15.6024
rtoes 8.06636
lfemur 14.0788 5.94813 -16.9129
ltibia 31.8278
lfoot -27.655 33.3642
ltoes -20.8816
2235
root -3.09687 14.5661 -27.8101 4.2877 16.2911 7.9969
lowerback 14.4424 0.788647 -13.5226
upperback -1.0606 -1.26442 0.555802
thorax -9.06298 0.0766891 8.57344
lowerneck -0.662144 -7.12598 -8.22207
upperneck 6.41424 -9.65782 5.82307
head 2.97987 -4.8593 3.05661
rclavicle -1.19271e-014 0
rhumerus -35.2032 8.00993 -72.0689
rradius 39.1959
rwrist 14.7997
rhand 0.544385 -44.7239
rfingers 7.12502
rthumb 26.1117 -72.9487
lclavicle -1.19271e-014 0
lhumerus -30.0115 -14.9979 87.7199
lradius 35.4639
lwrist -9.61904
lhand -17.5051 23.726
lfingers 7.12502
lthumb 8.7479 53.5247
rfemur -58.7412 -15.1913 5.76634
rtibia 67.0495
rfoot -8.70746 14.9501
rtoes 2.91451
lfemur 14.1486 5.71361 -16.7271
ltibia 31.6296
lfoot -27.519 33.3531
ltoes -20.7432
2236
root -3.09943 14.577 -27.81 4.27767 16.4265 7.93569
lowerback 14.3897 0.762655 -13.5599
upperback -1.09185 -1.29759 0.580513
thorax -9.05887 0.0645827 8.6286
lowerneck -0.687728 -7.17519 -8.18993
upperneck 6.32466 -9.72325 5.8658
head 2.96001 -4.88931 3.06215
rclavicle 1.57537e-014 2.70347e-014
rhumerus -35.4875 7.41949 -71.832
rradius 39.0591
rwrist 14.5783
rhand 0.519196 -44.9269
rfingers 7.12502
rthumb 26.0876 -73.1552
lclavicle 1.57537e-014 2.70347e-014
lhumerus -30.1673 -14.8277 87.5835
lradius 35.0756
lwrist -9.72907
lhand -17.954 23.8908
lfingers 7.12502
lthumb 8.31469 53.7071
rfemur -58.3744 -15.4394 5.97243
rtibia 66.4684
rfoot -8.9243 13.8716
rtoes -2.29156
lfemur 14.2341 5.52773 -16.6922
ltibia 31.3674
lfoot -27.3688 33.3311
ltoes -20.6103
2237
root -3.10187 14.6019 -27.8084 4.36032 16.5329 7.99144
lowerback 14.3044 0.747204 -13.6766
upperback -1.13212 -1.33098 0.550786
thorax -9.04659 0.0545231 8.6668
lowerneck -0.760158 -7.22427 -8.12915
upperneck 6.25468 -9.78634 5.90475
head 2.95324 -4.91693 3.05938
rclavicle -3.19049e-014 -1.27222e-014
rhumerus -35.7493 6.78199 -71.6131
rradius 38.9158
rwrist 14.3182
rhand 0.525079 -45.1112
rfingers 7.12502
rthumb 26.0932 -73.3388
lclavicle -3.19049e-014 -1.27222e-014
lhumerus -30.2538 -14.6982 87.4228
lradius 34.6562
lwrist -9.77781
lhand -18.3058 24.1398
lfingers 7.12502
lthumb 7.97516 53.9693
rfemur -58.1826 -15.7011 5.94496
rtibia 66.2062
rfoot -8.22396 14.7154
rtoes 0.521567
lfemur 14.2565 5.35261 -16.8033
ltibia 31.0579
lfoot -27.0544 33.3791
ltoes -20.6533
2238
root -3.10487 14.6229 -27.8037 4.46458 16.5951 8.00324
lowerback 14.1841 0.722294 -13.7635
upperback -1.16432 -1.36402 0.53659
thorax -9.00499 0.0409167 8.70407
lowerneck -0.873423 -7.24658 -8.13639
upperneck 6.19805 -9.81175 5.98391
head 2.96297 -4.92597 3.08312
rclavicle -2.55438e-014 -7.55382e-015
rhumerus -35.9135 6.25397 -71.4368
rradius 38.7392
rwrist 13.9077
rhand 0.251428 -45.1965
rfingers 7.12502
rthumb 25.8312 -73.4625
lclavicle -2.55438e-014 -7.55382e-015
lhumerus -30.2999 -14.5296 87.2382
lradius 34.2442
lwrist -9.72708
lhand -18.8727 24.0469
lfingers 7.12502
lthumb 7.42807 53.8965
rfemur -58.2211 -15.9723 6.11901
rtibia 66.041
rfoot -7.44276 15.387
rtoes 4.58986
lfemur 14.3036 5.23199 -16.8513
ltibia 30.6802
lfoot -26.8852 33.2958
ltoes -20.7524
2239
root -3.10761 14.632 -27.799 4.6419 16.6129 8.11113
lowerback 14.0683 0.722306 -13.8752
upperback -1.23012 -1.37689 0.460926
thorax -9.01031 0.0417119 8.68257
lowerneck -0.950035 -7.30145 -8.08564
upperneck 6.14406 -9.8815 6.00699
head 2.96258 -4.95752 3.07599
rclavicle 5.06404e-014 3.97569e-016
rhumerus -36.1752 5.69472 -71.3055
rradius 38.6337
rwrist 13.478
rhand 0.0529656 -45.5326
rfingers 7.12502
rthumb 25.6411 -73.8261
lclavicle 5.06404e-014 3.97569e-016
lhumerus -30.3728 -14.4254 87.0422
lradius 33.8744
lwrist -9.63883
lhand -19.2469 24.6987
lfingers 7.12502
lthumb 7.06684 54.5607
rfemur -58.4545 -16.2782 6.30212
rtibia 65.9457
rfoot -6.82551 15.3952
rtoes 6.18006
lfemur 14.3183 5.14465 -16.9974
ltibia 30.3024
lfoot -26.6735 33.2416
ltoes -20.7427
2240
root -3.10849 14.64 -27.7921 4.85121 16.629 8.21359
lowerback 13.8908 0.705558 -13.9523
upperback -1.2952 -1.39541 0.389641
thorax -8.97801 0.0351965 8.64534
lowerneck -0.840294 -7.35959 -8.14047
upperneck 5.95587 -9.96587 6.10551
head 2.89524 -4.99973 3.12159
rclavicle 2.46493e-014 2.46493e-014
rhumerus -36.4578 5.27284 -71.2005
rradius 38.5671
rwrist 13.0401
rhand -0.293312 -45.6605
rfingers 7.12502
rthumb 25.3094 -74.0013
lclavicle 2.46493e-014 2.46493e-014
lhumerus -30.41 -14.2402 86.8547
lradius 33.5022
lwrist -9.6263
lhand -19.1598 24.6971
lfingers 7.12502
lthumb 7.15092 54.5563
rfemur -58.7248 -16.5878 6.4301
rtibia 65.9244
rfoot -6.22658 15.5131
rtoes 7.81098
lfemur 14.2637 5.07701 -17.1427
ltibia 30.02
lfoot -26.4003 33.2702
ltoes -20.9359
2241
root -3.10955 14.6446 -27.7852 5.10332 16.6065 8.35313
lowerback 13.6783 0.707269 -14.0285
upperback -1.37821 -1.38762 0.284983
thorax -8.95326 0.0417487 8.56387
lowerneck -0.820759 -7.39947 -8.1308
upperneck 5.86695 -10.0209 6.14769
head 2.86804 -5.02601 3.13322
rclavicle -7.95139e-015 -3.18055e-015
rhumerus -36.7224 4.7906 -71.0955
rradius 38.4487
rwrist 12.5593
rhand -0.607136 -45.9642
rfingers 7.12502
rthumb 25.0087 -74.3472
lclavicle -7.95139e-015 -3.18055e-015
lhumerus -30.5083 -14.1208 86.6778
lradius 33.2146
lwrist -9.47867
lhand -19.7815 25.4418
lfingers 7.12502
lthumb 6.55071 55.3205
rfemur -59.0782 -16.8815 6.54528
rtibia 65.9457
rfoot -5.74614 15.5676
rtoes 8.46956
lfemur 14.1718 5.02662 -17.3335
ltibia 29.7763
lfoot -26.268 33.2637
ltoes -21.0077
2242
root -3.11189 14.6494 -27.7815 5.3491 16.5252 8.43365
lowerback 13.5176 0.723948 -14.0567
upperback -1.45251 -1.35808 0.19417
thorax -8.95398 0.0583107 8.46788
lowerneck -1.02972 -7.40028 -8.05964
upperneck 5.85739 -10.0088 6.141
head 2.89727 -5.01516 3.11085
rclavicle 4.19187e-014 3.18055e-014
rhumerus -37.0252 4.45168 -71.0455
rradius 38.4421
rwrist 12.1865
rhand -0.955131 -46.2249
rfingers 7.12502
rthumb 24.6752 -74.654
lclavicle 4.19187e-014 3.18055e-014
lhumerus -30.5838 -13.8914 86.4618
lradius 32.9756
lwrist -9.44197
lhand -22.5511 22.2741
lfingers 7.12502
lthumb 3.87657 52.2186
rfemur -59.4539 -17.0584 6.71048
rtibia 65.9598
rfoot -5.48174 15.5424
rtoes 9.12459
lfemur 14.0459 5.04312 -17.4648
ltibia 29.5542
lfoot -26.1371 33.2558
ltoes -21.0915
2243
root -3.11049 14.6557 -27.7744 5.53017 16.4676 8.52849
lowerback 13.3791 0.734156 -14.0568
upperback -1.49621 -1.33377 0.0979438
thorax -8.93171 0.0674806 8.35137
lowerneck -1.04803 -7.41501 -8.04003
upperneck 5.73987 -10.0257 6.16991
head 2.8626 -5.02191 3.11693
rclavicle 2.88735e-014 -2.66371e-014
rhumerus -37.263 4.22912 -71.0153
rradius 38.4075
rwrist 11.8323
rhand -1.20048 -46.2868
rfingers 7.12502
rthumb 24.44 -74.7478
lclavicle 2.88735e-014 -2.66371e-014
lhumerus -30.6283 -13.5759 86.2442
lradius 32.6881
lwrist -9.46518
lhand -22.9991 22.4733
lfingers 7.12502
lthumb 3.44397 52.4252
rfemur -59.6768 -17.2653 6.807
rtibia 65.9487
rfoot -5.37419 15.5985
rtoes 9.39439
lfemur 14.037 5.05209 -17.6036
ltibia 29.304
lfoot -26.0314 33.2278
ltoes -21.1424
2244
root -3.11081 14.6641 -27.7689 5.67005 16.3634 8.46282
lowerback 13.246 0.745216 -13.9456
upperback -1.5277 -1.28523 0.0558062
thorax -8.90411 0.0832518 8.22782
lowerneck -1.11265 -7.42694 -8.0169
upperneck 5.63936 -10.0349 6.17763
head 2.84 -5.02451 3.11357
rclavicle -3.15571e-015 2.90226e-014
rhumerus -37.3664 4.11188 -71.0183
rradius 38.2697
rwrist 11.594
rhand -1.52251 -46.5401
rfingers 7.12502
rthumb 24.1313 -75.0424
lclavicle -3.15571e-015 2.90226e-014
lhumerus -30.6877 -13.0785 85.9814
lradius 32.5208
lwrist -9.76957
lhand -22.9541 22.8555
lfingers 7.12502
lthumb 3.48743 52.8067
rfemur -59.8579 -17.3248 7.0458
rtibia 65.8757
rfoot -5.32694 15.6224
rtoes 9.33393
lfemur 14.0297 5.10502 -17.576
ltibia 29.04
lfoot -25.863 33.2371
ltoes -21.2017
2245
root -3.11015 14.6726 -27.7622 5.7672 16.2626 8.44345
lowerback 13.1454 0.757424 -13.8822
upperback -1.52791 -1.24661 0.00382977
thorax -8.8572 0.0934504 8.12306
lowerneck -1.17004 -7.42645 -7.95379
upperneck 5.51313 -10.0268 6.16308
head 2.80163 -5.01823 3.09673
rclavicle -1.20265e-014 3.06128e-014
rhumerus -37.4071 4.07125 -71.0457
rradius 38.0996
rwrist 11.5305
rhand -1.76678 -46.4771
rfingers 7.12502
rthumb 23.8971 -75.0102
lclavicle -1.20265e-014 3.06128e-014
lhumerus -30.7015 -12.5368 85.718
lradius 32.2868
lwrist -9.95214
lhand -23.4081 23.4873
lfingers 7.12502
lthumb 3.04902 53.4452
rfemur -59.947 -17.385 7.19082
rtibia 65.7796
rfoot -5.32963 15.7034
rtoes 9.11124
lfemur 14.1038 5.16091 -17.5894
ltibia 28.7491
lfoot -25.7705 33.1799
ltoes -21.1488
2246
root -3.11029 14.6805 -27.7552 5.84726 16.1722 8.41117
lowerback 13.0848 0.765587 -13.8357
upperback -1.53836 -1.22165 -0.0248554
thorax -8.84085 0.101496 8.05812
lowerneck -1.18043 -7.4138 -7.94673
upperneck 5.37721 -10.0056 6.18177
head 2.75642 -5.00671 3.10406
rclavicle 1.87355e-014 2.10712e-014
rhumerus -37.406 4.18125 -71.089
rradius 37.9158
rwrist 11.4224
rhand -1.9608 -46.4989
rfingers 7.12502
rthumb 23.711 -75.0563
lclavicle 1.87355e-014 2.10712e-014
lhumerus -30.615 -11.6879 85.4034
lradius 31.8947
lwrist -10.534
lhand -23.2119 23.9414
lfingers 7.12502
lthumb 3.23846 53.8965
rfemur -60.0024 -17.4267 7.32055
rtibia 65.6705
rfoot -5.29537 15.8181
rtoes 9.23089
lfemur 14.1801 5.21948 -17.5747
ltibia 28.4994
lfoot -25.8129 33.052
ltoes -20.9442
